<svg enable-background="new 0 0 512 512" viewBox="0 0 512 512" xmlns="http://www.w3.org/2000/svg"><path d="m429.725 175.045c-74.584-74.584-277.675-194.859-327.59-21.509s-150.627 245.447-64.326 331.748 632.682-69.474 391.916-310.239z" fill="#ff1a1a"/><path d="m192.935 137.43s-.083.217-.256.588c-.182.351-.416.937-.775 1.55-.353.627-.764 1.426-1.286 2.235-.514.825-1.115 1.713-1.791 2.635-.678.92-1.431 1.875-2.256 2.825-.823.953-1.714 1.912-2.659 2.851-1.898 1.862-4.018 3.646-6.24 5.209-2.216 1.578-4.539 2.927-6.817 3.976-2.276 1.053-4.51 1.802-6.51 2.263-1.003.224-1.938.395-2.787.503-.851.104-1.607.165-2.246.18-1.272.043-2.061-.067-2.061-.067-5.521-.765-9.377-5.862-8.611-11.384.199-1.439.722-2.806 1.44-3.966 0 0 .423-.676 1.271-1.624.422-.48.953-1.021 1.579-1.607.628-.581 1.359-1.189 2.174-1.815 1.636-1.238 3.644-2.471 5.913-3.541 2.266-1.075 4.792-1.99 7.423-2.678 2.625-.701 5.354-1.182 8-1.444 1.327-.122 2.633-.19 3.893-.21 1.258-.024 2.474.012 3.614.082 1.141.072 2.207.182 3.17.316.956.119 1.832.317 2.54.448.701.117 1.301.315 1.686.4.395.106.615.181.615.181.838.289 1.284 1.202.995 2.04-.005.018-.013.04-.018.054zm169.396 111.117s-.157.147-.411.422c-.232.274-.651.679-1.038 1.189-.402.511-.932 1.132-1.421 1.84-.506.709-1.031 1.508-1.551 2.377-.518.869-1.034 1.81-1.512 2.802-.483.993-.94 2.038-1.355 3.117-.812 2.158-1.456 4.452-1.856 6.738-.416 2.287-.58 4.565-.495 6.693.08 2.128.413 4.106.898 5.794.249.844.517 1.616.8 2.3.289.683.574 1.277.847 1.765.533.977.984 1.53.984 1.53.581.703 1.294 1.386 2.073 1.94 4.794 3.413 11.447 2.293 14.859-2.501 0 0 .414-.582.881-1.592.24-.505.485-1.117.728-1.818.238-.7.453-1.489.646-2.348.372-1.717.573-3.712.512-5.841-.056-2.129-.371-4.391-.937-6.645-.551-2.255-1.345-4.501-2.298-6.6-.486-1.049-1.011-2.062-1.558-3.02-.543-.959-1.12-1.863-1.695-2.696-.576-.833-1.152-1.595-1.705-2.27-.535-.675-1.105-1.26-1.54-1.742-.419-.483-.865-.859-1.114-1.117-.272-.257-.438-.394-.438-.394-.666-.55-1.656-.532-2.304.077zm-81.86 8.566s-.201-.076-.56-.183c-.348-.087-.896-.286-1.523-.408-.635-.136-1.425-.338-2.277-.465-.859-.142-1.806-.261-2.815-.345-1.008-.082-2.078-.131-3.179-.123-1.103.004-2.241.054-3.391.157-2.292.221-4.633.654-6.859 1.302-2.233.634-4.348 1.49-6.218 2.504-1.872 1.009-3.498 2.179-4.798 3.358-.647.596-1.221 1.176-1.708 1.731-.485.56-.892 1.078-1.209 1.537-.641.908-.937 1.557-.937 1.557-.373.829-.67 1.766-.824 2.706-.952 5.81 2.985 11.292 8.795 12.244 0 0 .704.115 1.815.09.559-.007 1.215-.057 1.95-.147.733-.095 1.534-.249 2.389-.454 1.703-.422 3.581-1.121 5.462-2.113 1.884-.988 3.773-2.267 5.544-3.768 1.778-1.487 3.442-3.189 4.903-4.969.726-.898 1.402-1.816 2.02-2.729.62-.91 1.176-1.826 1.669-2.708.493-.884.922-1.737 1.283-2.53.369-.778.642-1.546.883-2.149.248-.589.389-1.155.51-1.492.111-.357.16-.567.16-.567.199-.842-.254-1.722-1.085-2.036zm-176.679 46.779s-.201-.076-.56-.183c-.348-.087-.896-.286-1.523-.408-.635-.136-1.425-.338-2.277-.465-.859-.142-1.806-.261-2.815-.345-1.008-.082-2.078-.131-3.179-.123-1.103.004-2.241.054-3.391.157-2.292.221-4.633.654-6.859 1.302-2.233.634-4.348 1.49-6.218 2.504-1.872 1.009-3.498 2.179-4.798 3.358-.647.596-1.221 1.176-1.708 1.731-.485.56-.892 1.078-1.209 1.537-.641.908-.937 1.557-.937 1.557-.373.829-.67 1.766-.824 2.706-.952 5.81 2.985 11.292 8.795 12.244 0 0 .704.115 1.815.09.559-.007 1.215-.057 1.95-.147.733-.095 1.534-.249 2.389-.454 1.703-.422 3.581-1.121 5.462-2.113 1.884-.988 3.773-2.267 5.544-3.768 1.778-1.487 3.442-3.189 4.903-4.969.726-.898 1.402-1.816 2.02-2.729.62-.91 1.176-1.826 1.669-2.708.493-.884.922-1.737 1.283-2.53.369-.778.642-1.546.883-2.149.248-.589.389-1.155.51-1.492.111-.357.16-.567.16-.567.2-.842-.253-1.722-1.085-2.036zm61.663-79.623s-.209-.025-.574-.041c-.35-.001-.917-.06-1.538-.027-.632.021-1.427.016-2.259.097-.843.068-1.762.179-2.729.338-.965.161-1.98.367-3.007.635-1.027.267-2.086.575-3.118.96-1.059.357-2.084.799-3.101 1.274-1.014.478-2.008 1.002-2.957 1.574-1.91 1.13-3.648 2.443-5.113 3.847-1.468 1.401-2.66 2.897-3.547 4.322-.888 1.424-1.473 2.775-1.812 3.794-.179.5-.266.949-.347 1.233-.072.293-.094.467-.094.467-.075.65-.102 1.377-.058 2.053.397 6.063 5.634 10.655 11.696 10.258 0 0 .175-.011.471-.067.288-.065.741-.126 1.251-.277 1.037-.282 2.419-.789 3.89-1.596 1.473-.805 3.034-1.911 4.515-3.298 1.484-1.384 2.893-3.044 4.128-4.888.624-.915 1.204-1.878 1.738-2.863.531-.989 1.03-1.987 1.446-3.024.443-1.008.81-2.048 1.134-3.059.325-1.01.588-2.012.803-2.966.213-.956.376-1.867.491-2.705.127-.826.167-1.62.224-2.25.067-.618.04-1.188.059-1.537.004-.365-.009-.576-.009-.576-.049-.854-.705-1.575-1.583-1.678zm120.072-47.365c.492-.754.28-1.765-.474-2.257 0 0-.192-.125-.543-.32-.346-.173-.871-.506-1.508-.784-.641-.294-1.427-.691-2.304-1.032-.881-.357-1.866-.714-2.929-1.052-1.063-.336-2.205-.656-3.4-.929-1.195-.276-2.445-.517-3.726-.71-2.559-.368-5.242-.542-7.876-.477-2.637.049-5.222.345-7.597.856-2.376.506-4.541 1.231-6.355 2.049-.906.415-1.728.834-2.448 1.251-.718.422-1.338.822-1.84 1.189-1.007.721-1.553 1.278-1.553 1.278-.892.919-1.663 2.058-2.172 3.32-2.106 5.22.418 11.158 5.637 13.264 0 0 .723.292 1.935.549.607.135 1.335.254 2.163.353.826.094 1.747.148 2.744.166 1.99.022 4.264-.18 6.644-.668 2.381-.483 4.868-1.247 7.304-2.258 2.439-.996 4.829-2.23 7.026-3.591 1.097-.69 2.146-1.411 3.13-2.143.985-.728 1.904-1.479 2.743-2.212.839-.736 1.598-1.457 2.263-2.137.668-.663 1.229-1.342 1.699-1.868.472-.51.82-1.025 1.068-1.323.243-.32.369-.511.369-.511zm11.894 150.083s-.161.153-.424.439c-.24.286-.672.706-1.074 1.24-.418.534-.967 1.183-1.478 1.927-.528.744-1.078 1.583-1.625 2.498-.545.915-1.09 1.907-1.6 2.956-.514 1.049-1.003 2.155-1.452 3.298-.88 2.288-1.595 4.728-2.067 7.167-.488 2.44-.723 4.879-.706 7.165.013 2.286.283 4.42.715 6.248.223.914.465 1.752.727 2.495.268.743.533 1.39.791 1.923.501 1.066.936 1.675.936 1.675.654.909 1.49 1.764 2.455 2.447 4.683 3.318 11.17 2.211 14.487-2.473 0 0 .432-.61.931-1.678.256-.534.52-1.182.785-1.926.26-.743.5-1.582.72-2.497.426-1.83.69-3.964.696-6.25.011-2.286-.232-4.725-.727-7.163-.479-2.438-1.202-4.876-2.089-7.161-.453-1.143-.946-2.247-1.462-3.294-.513-1.047-1.061-2.037-1.609-2.951-.55-.914-1.102-1.751-1.632-2.493-.514-.742-1.064-1.389-1.484-1.922-.404-.533-.837-.951-1.078-1.237-.263-.285-.425-.438-.425-.438-.647-.602-1.662-.61-2.311.005zm-27.001 83.771s-.203.09-.547.271c-.322.189-.87.44-1.428.808-.573.363-1.307.79-2.038 1.32-.747.524-1.546 1.13-2.368 1.81-.82.68-1.666 1.431-2.498 2.249-.835.816-1.667 1.694-2.474 2.621-1.596 1.861-3.087 3.92-4.349 6.06-1.277 2.135-2.316 4.354-3.066 6.514-.754 2.159-1.214 4.259-1.42 6.127-.096.936-.149 1.807-.151 2.594.003.789.037 1.488.101 2.077.115 1.173.32 1.892.32 1.892.311 1.076.813 2.161 1.493 3.128 3.301 4.695 9.783 5.825 14.478 2.524 0 0 .612-.43 1.439-1.269.42-.417.886-.94 1.385-1.551.494-.613 1.001-1.323 1.515-2.111 1.015-1.581 1.978-3.504 2.75-5.656.776-2.151 1.364-4.529 1.715-6.992.365-2.458.501-4.997.431-7.447-.044-1.228-.138-2.434-.274-3.594-.132-1.158-.317-2.275-.527-3.319-.212-1.045-.451-2.019-.702-2.896-.235-.872-.537-1.666-.754-2.308-.202-.637-.47-1.177-.601-1.527-.153-.357-.254-.555-.254-.555-.405-.784-1.358-1.131-2.176-.77zm123.006-83.705c-.537-.676-1.52-.788-2.196-.251 0 0-.188.149-.5.435-.295.289-.784.704-1.302 1.248-1.067 1.084-2.457 2.655-3.874 4.58-.708.963-1.431 2.012-2.128 3.134-.702 1.12-1.391 2.31-2.046 3.55-1.293 2.483-2.453 5.167-3.372 7.889-.934 2.72-1.62 5.48-2.027 8.105-.412 2.625-.541 5.115-.455 7.281.05 1.084.134 2.084.255 2.978.126.895.268 1.68.423 2.333.297 1.303.612 2.072.612 2.072.579 1.394 1.501 2.721 2.727 3.77 4.165 3.567 10.434 3.082 14.001-1.083 0 0 .54-.631 1.23-1.776.352-.571.732-1.273 1.132-2.083.395-.811.787-1.735 1.174-2.749.76-2.03 1.417-4.436 1.848-7.058.435-2.621.648-5.456.613-8.332-.02-2.873-.281-5.785-.732-8.548-.234-1.383-.516-2.729-.832-4.013-.312-1.283-.669-2.507-1.04-3.642-.742-2.272-1.572-4.199-2.245-5.562-.321-.679-.656-1.226-.846-1.593-.207-.37-.339-.57-.339-.57-.023-.039-.052-.079-.081-.115zm-169.944 38.326s-.219.04-.595.137c-.357.109-.948.226-1.577.455-.641.22-1.455.465-2.289.811-.848.336-1.766.741-2.723 1.21-.956.471-1.953 1.005-2.952 1.607-1.002.6-2.015 1.26-3.015 1.975-1.984 1.439-3.913 3.096-5.637 4.885-1.738 1.78-3.264 3.698-4.494 5.625-1.234 1.925-2.17 3.861-2.804 5.63-.311.888-.564 1.723-.749 2.489-.18.769-.31 1.456-.384 2.044-.16 1.167-.128 1.915-.128 1.915.053 1.118.289 2.291.726 3.389 2.121 5.333 8.164 7.937 13.497 5.817 0 0 .695-.276 1.694-.9.505-.309 1.08-.708 1.707-1.187.623-.482 1.281-1.055 1.964-1.702 1.354-1.302 2.738-2.949 3.988-4.863 1.254-1.912 2.379-4.089 3.291-6.403.926-2.306 1.647-4.744 2.148-7.143.243-1.205.431-2.399.568-3.559.14-1.157.22-2.286.258-3.351.037-1.066.03-2.069-.011-2.98-.027-.902-.136-1.745-.198-2.42-.048-.667-.184-1.254-.231-1.625-.066-.383-.118-.599-.118-.599-.21-.86-1.056-1.419-1.936-1.257zm-122.888 23.671c.031-.709-.519-1.309-1.228-1.339 0 0-.17-.007-.487-.021-.299.008-.779-.028-1.312.015-.541.033-1.22.049-1.937.137-.725.078-1.519.194-2.357.352-.837.159-1.719.359-2.617.61s-1.826.537-2.737.888c-1.85.671-3.679 1.548-5.392 2.555-3.45 1.989-6.304 4.648-8.021 7.118-.429.618-.802 1.208-1.107 1.758-.303.554-.549 1.056-.732 1.493-.363.875-.506 1.448-.506 1.448-.234.952-.309 1.991-.178 3.022.573 4.495 4.681 7.675 9.176 7.102 0 0 .586-.075 1.498-.333.455-.13.983-.316 1.568-.551.583-.239 1.212-.54 1.876-.893 2.655-1.416 5.63-3.938 8.01-7.131 1.202-1.583 2.287-3.297 3.17-5.055.455-.863.848-1.751 1.203-2.614.355-.862.656-1.715.913-2.527.255-.813.464-1.588.627-2.299.172-.701.267-1.374.363-1.907.105-.524.125-1.005.168-1.301.024-.317.036-.487.036-.487.001-.011.003-.028.003-.04zm315.585-139.294s-.063.213-.147.592c-.064.368-.228.948-.308 1.612-.094.672-.243 1.508-.313 2.408-.084.909-.139 1.91-.153 2.976-.012 1.065.013 2.197.098 3.359.081 1.165.212 2.367.397 3.582.386 2.421.99 4.89 1.805 7.238.801 2.355 1.82 4.584 2.982 6.553 1.158 1.972 2.461 3.682 3.751 5.048.651.679 1.281 1.283 1.88 1.794.604.508 1.158.935 1.648 1.268.969.671 1.65.98 1.65.98 1.021.459 2.173.779 3.351.887 5.716.523 10.773-3.687 11.295-9.403 0 0 .068-.745-.036-1.919-.046-.59-.143-1.283-.286-2.06-.148-.773-.361-1.62-.629-2.521-.549-1.797-1.391-3.776-2.531-5.757-1.137-1.984-2.57-3.972-4.22-5.833-1.637-1.869-3.485-3.616-5.398-5.149-.964-.762-1.945-1.47-2.917-2.117-.969-.649-1.94-1.231-2.871-1.747-.934-.515-1.831-.963-2.663-1.339-.817-.385-1.617-.668-2.248-.919-.617-.259-1.201-.403-1.553-.53-.371-.115-.587-.165-.587-.165-.861-.197-1.743.304-1.997 1.162zm-229.872 76.398s-.222-.011-.61-.002c-.373.025-.975.004-1.639.084-.675.068-1.523.122-2.414.268-.903.134-1.888.319-2.928.558-1.038.241-2.131.534-3.24.893-1.112.356-2.249.769-3.385 1.237-2.26.95-4.515 2.124-6.602 3.473-2.097 1.338-4.02 2.857-5.657 4.454-1.64 1.593-2.992 3.266-4.012 4.843-.505.794-.942 1.549-1.296 2.253-.35.707-.633 1.348-.84 1.902-.422 1.1-.56 1.835-.56 1.835-.203 1.101-.24 2.296-.065 3.466.851 5.676 6.142 9.588 11.818 8.737 0 0 .74-.111 1.855-.491.562-.185 1.212-.444 1.933-.768.716-.328 1.487-.735 2.3-1.21 1.615-.96 3.337-2.248 4.991-3.827 1.657-1.576 3.247-3.44 4.663-5.486 1.427-2.034 2.684-4.244 3.718-6.466.511-1.118.966-2.238 1.363-3.336.4-1.095.734-2.176 1.014-3.204.278-1.029.5-2.008.668-2.904.18-.885.265-1.73.359-2.402.105-.66.106-1.263.145-1.634.023-.388.021-.61.021-.61-.01-.883-.707-1.62-1.6-1.663zm-31.051 115.136c.192-.683-.205-1.393-.888-1.585 0 0-.163-.046-.47-.132-.292-.061-.752-.206-1.28-.287-.534-.092-1.199-.233-1.916-.311-.724-.09-1.523-.159-2.375-.198-.851-.037-1.756-.045-2.687-.007-.932.038-1.9.103-2.867.236-1.954.228-3.936.662-5.834 1.25-3.814 1.144-7.202 3.077-9.44 5.087-.559.503-1.057.991-1.481 1.457-.422.47-.777.902-1.055 1.285-.555.768-.825 1.293-.825 1.293-.446.873-.758 1.867-.867 2.9-.474 4.507 2.795 8.544 7.302 9.018 0 0 .587.062 1.534.02.473-.022 1.029-.082 1.653-.177.622-.099 1.303-.247 2.031-.439 2.909-.769 6.383-2.541 9.432-5.103 1.533-1.265 2.983-2.684 4.245-4.192.641-.736 1.227-1.51 1.77-2.268s1.032-1.519 1.468-2.25c.435-.733.816-1.439 1.137-2.094.328-.643.575-1.276.791-1.773.222-.486.353-.95.462-1.228.096-.303.147-.465.147-.465.005-.009.01-.026.013-.037z" fill="#ff5c5c"/><path d="m395.111 100.598c3.439-55.18-39.063-88.094-54.406-98.118-2.545-1.663-5.933-.023-6.203 3.005-.71 7.954-1.198 23.232 2.017 44.583.897 5.958-2.098 7.578-6.625 3.601-18.845-16.557-64.797-51.102-101.087-31.213-2.157 1.182-2.824 3.955-1.366 5.937 5.726 7.784 23.483 27.71 71.251 56.975 8.79 5.385 7.607 8.735-2.615 7.405-27.365-3.561-75.173-6.042-107.013 13.163-2.887 1.742-2.502 6.043.658 7.219 25.725 9.578 112.862 40.864 147.243 38.483 17.01-1.178-3.292 55.755-11.173 76.34-1.182 3.088 1.652 6.21 4.833 5.309 20.126-5.702 72.766-23.973 73.086-59.174.032-3.576 4.242-5.432 6.81-2.944l88.711 85.931s.001.002.001.001c.014-.062 16.823-72.469-54.355-107.871-17.239-8.574 40.096-8.394 58.965-8.115 2.996.044 4.994-3.1 3.666-5.785-15.824-31.987-89.198-31.216-108.248-30.458-2.378.096-4.298-1.898-4.15-4.274z" fill="#16992b"/></svg>